<?xml version="1.0" encoding="UTF-8"?>
<!DOCTYPE svg PUBLIC "-//W3C//DTD SVG 1.1//EN" "http://www.w3.org/Graphics/SVG/1.1/DTD/svg11.dtd">
<!-- Creator: CorelDRAW X7 -->
<svg xmlns="http://www.w3.org/2000/svg" xml:space="preserve" width="24in" height="12in" version="1.1" style="shape-rendering:geometricPrecision; text-rendering:geometricPrecision; image-rendering:optimizeQuality; fill-rule:evenodd; clip-rule:evenodd"
viewBox="0 0 24000 12000"
 xmlns:xlink="http://www.w3.org/1999/xlink"
 xmlns:dc="http://purl.org/dc/elements/1.1/"
 xmlns:cc="http://creativecommons.org/ns#"
 xmlns:rdf="http://www.w3.org/1999/02/22-rdf-syntax-ns#"
 xmlns:svg="http://www.w3.org/2000/svg"
 xmlns:sodipodi="http://sodipodi.sourceforge.net/DTD/sodipodi-0.dtd"
 xmlns:inkscape="http://www.inkscape.org/namespaces/inkscape"
 inkscape:version="0.91 r13725"
 sodipodi:docname="CaseCutTemplate.svg">
 <defs>
  <style type="text/css">
   <![CDATA[
    .str0 {stroke:black;stroke-width:3}
    .fil2 {fill:none}
    .fil1 {fill:none}
    .fil0 {fill:none}
    .fil3 {fill:none}
   ]]>
  </style>
 </defs>
 <g id="Layer_x0020_1">
  <metadata id="CorelCorpID_0Corel-Layer"/>
  <sodipodi:namedview id="base" pagecolor="#ffffff" bordercolor="#666666" borderopacity="1.0" inkscape:pageopacity="0.0" inkscape:pageshadow="2" inkscape:zoom="2.0000001" inkscape:cx="422.65463" inkscape:cy="941.42702" inkscape:document-units="in" inkscape:current-layer="layer1" showgrid="false" units="in" inkscape:window-width="1366" inkscape:window-height="693" inkscape:window-x="0" inkscape:window-y="1" inkscape:window-maximized="1"/>
  <path id="path5614" class="fil0 str0" d="M2528 2382c0,-32 -26,-58 -59,-58 -32,0 -58,26 -58,58 0,33 26,59 58,59 33,0 59,-26 59,-59z"/>
  <path id="path5616" class="fil0 str0" d="M2528 632c0,-32 -26,-58 -59,-58 -32,0 -58,26 -58,58 0,33 26,59 58,59 33,0 59,-26 59,-59z"/>
  <path id="path5618" class="fil1 str0" d="M6778 632c0,-32 -26,-58 -59,-58 -32,0 -58,26 -58,58 0,33 26,59 58,59 33,0 59,-26 59,-59z"/>
  <path id="path5620" class="fil1 str0" d="M6778 2382c0,-32 -26,-58 -59,-58 -32,0 -58,26 -58,58 0,33 26,59 58,59 33,0 59,-26 59,-59z"/>
  <path id="path5625" class="fil1 str0" d="M4350 2290c0,-21 -18,-39 -39,-39 -22,0 -39,18 -39,39 0,22 17,39 39,39 21,0 39,-17 39,-39z"/>
  <path id="path5627" class="fil1 str0" d="M4127 654c0,-21 -18,-39 -39,-39 -22,0 -39,18 -39,39 0,22 17,39 39,39 21,0 39,-17 39,-39z"/>
  <path id="path5629" class="fil1 str0" d="M5567 654c0,-21 -18,-39 -39,-39 -22,0 -39,18 -39,39 0,22 17,39 39,39 21,0 39,-17 39,-39z"/>
  <path id="path5631" class="fil1 str0" d="M5344 2290c0,-21 -18,-39 -39,-39 -22,0 -39,18 -39,39 0,22 17,39 39,39 21,0 39,-17 39,-39z"/>
  <rect id="rect5633" class="fil2 str0" x="2862" y="842" width="399" height="1486"/>
  <rect id="rect5635" class="fil2 str0" x="3581" y="842" width="399" height="1487"/>
  <rect id="rect5637" class="fil2 str0" x="4164" y="537" width="1287" height="1681"/>
  <rect id="rect5639" class="fil2 str0" x="2495" y="808" width="199" height="399"/>
  <rect id="rect5641" class="fil2 str0" x="2445" y="1348" width="299" height="319"/>
  <rect id="rect5643" class="fil2 str0" x="2445" y="1848" width="299" height="319"/>
  <path id="path5649" class="fil3 str0" d="M6564 1507c0,-204 -166,-369 -370,-369 -204,0 -369,165 -369,369 0,204 165,370 369,370 204,0 370,-166 370,-370z"/>
  <path id="path5651" class="fil3 str0" d="M3114 622c0,-60 -49,-109 -109,-109 -61,0 -110,49 -110,109 0,61 49,110 110,110 60,0 109,-49 109,-110z"/>
  <path id="path5653" class="fil3 str0" d="M3483 623c0,-60 -49,-109 -109,-109 -60,0 -108,49 -108,109 0,60 48,109 108,109 60,0 109,-49 109,-109z"/>
  <path id="path5655" class="fil3 str0" d="M3853 623c0,-61 -49,-109 -109,-109 -60,0 -109,48 -109,109 0,60 49,109 109,109 60,0 109,-49 109,-109z"/>
  <rect id="rect5657" class="fil2 str0" x="3262" y="1063" width="318" height="889"/>
  <rect id="rect5215" class="fil2 str0" x="5926" y="2326" width="629" height="121"/>
  <path id="path5893" class="fil0 str0" d="M6307 1171c0,-61 -49,-110 -109,-110 -61,0 -110,49 -110,110 0,60 49,109 110,109 60,0 109,-49 109,-109z"/>
  <g id="g8720">
   <polygon id="polygon8722" class="fil2 str0" points="5290,4887 5592,4887 5592,5005 5894,5005 5894,4887 6196,4887 6196,5005 6624,5005 6624,4887 7051,4887 7051,5289 6933,5289 6933,5692 7051,5692 7051,5993 6933,5993 6933,6295 7051,6295 7051,6597 6933,6597 6933,7000 7051,7000 7051,7402 6624,7402 6624,7284 6196,7284 6196,7402 5894,7402 5894,7284 5592,7284 5592,7402 5290,7402 5290,7284 4988,7284 4988,7402 4687,7402 4687,7284 4385,7284 4385,7402 4083,7402 4083,7284 3781,7284 3781,7402 3479,7402 3479,7284 3177,7284 3177,7402 2875,7402 2875,7284 2448,7284 2448,7402 2020,7402 2020,7000 2139,7000 2139,6597 2020,6597 2020,6295 2139,6295 2139,5993 2020,5993 2020,5692 2139,5692 2139,5289 2020,5289 2020,4887 2448,4887 2448,5005 2875,5005 2875,4887 3177,4887 3177,5005 3479,5005 3479,4887 3781,4887 3781,5005 4083,5005 4083,4887 4385,4887 4385,5005 4687,5005 4687,4887 4988,4887 4988,5005 5290,5005 "/>
  </g>
  <polygon id="polygon8726" class="fil2 str0" points="6244,375 6669,375 6669,257 7094,257 7094,657 6976,657 6976,1057 7094,1057 7094,1357 6976,1357 6976,1657 7094,1657 7094,1957 6976,1957 6976,2357 7094,2357 7094,2757 6669,2757 6669,2639 6244,2639 6244,2757 5944,2757 5944,2639 5644,2639 5644,2757 5344,2757 5344,2639 5044,2639 5044,2757 4744,2757 4744,2639 4444,2639 4444,2757 4144,2757 4144,2639 3844,2639 3844,2757 3544,2757 3544,2639 3244,2639 3244,2757 2944,2757 2944,2639 2519,2639 2519,2757 2094,2757 2094,2357 2212,2357 2212,1957 2094,1957 2094,1657 2212,1657 2212,1357 2094,1357 2094,1057 2212,1057 2212,657 2094,657 2094,257 2519,257 2519,375 2944,375 2944,257 3244,257 3244,375 3544,375 3544,257 3844,257 3844,375 4144,375 4144,257 4444,257 4444,375 4744,375 4744,257 5044,257 5044,375 5344,375 5344,257 5644,257 5644,375 5944,375 5944,257 6244,257 "/>
  <g id="g8728">
   <polygon id="polygon8730" class="fil2 str0" points="8809,1975 8927,1975 8927,2375 8809,2375 8809,2775 8567,2775 8567,2657 8207,2657 8207,2775 7847,2775 7847,2657 7487,2657 7487,2775 7245,2775 7245,2375 7127,2375 7127,1975 7245,1975 7245,1675 7127,1675 7127,1375 7245,1375 7245,1075 7127,1075 7127,675 7245,675 7245,275 7487,275 7487,393 7847,393 7847,275 8207,275 8207,393 8567,393 8567,275 8809,275 8809,675 8927,675 8927,1075 8809,1075 8809,1375 8927,1375 8927,1675 8809,1675 "/>
  </g>
  <polygon id="polygon8734" class="fil2 str0" points="1933,1381 2051,1381 2051,1681 1933,1681 1933,1981 2051,1981 2051,2381 1933,2381 1933,2781 1691,2781 1691,2663 1331,2663 1331,2781 971,2781 971,2663 611,2663 611,2781 369,2781 369,2381 251,2381 251,1981 369,1981 369,1681 251,1681 251,1381 369,1381 369,1081 251,1081 251,681 369,681 369,281 611,281 611,399 971,399 971,281 1331,281 1331,399 1691,399 1691,281 1933,281 1933,681 2051,681 2051,1081 1933,1081 "/>
  <g id="g8736">
   <polygon id="polygon8738" class="fil2 str0" points="4381,7502 4681,7502 4681,7620 4981,7620 4981,7502 5281,7502 5281,7620 5581,7620 5581,7502 5881,7502 5881,7620 6181,7620 6181,7502 6606,7502 6606,7620 6913,7620 6913,7862 7031,7862 7031,8222 6913,8222 6913,8582 7031,8582 7031,8942 6913,8942 6913,9184 6606,9184 6606,9302 6181,9302 6181,9184 5881,9184 5881,9302 5581,9302 5581,9184 5281,9184 5281,9302 4981,9302 4981,9184 4681,9184 4681,9302 4381,9302 4381,9184 4081,9184 4081,9302 3781,9302 3781,9184 3481,9184 3481,9302 3181,9302 3181,9184 2881,9184 2881,9302 2456,9302 2456,9184 2149,9184 2149,8942 2031,8942 2031,8582 2149,8582 2149,8222 2031,8222 2031,7862 2149,7862 2149,7620 2456,7620 2456,7502 2881,7502 2881,7620 3181,7620 3181,7502 3481,7502 3481,7620 3781,7620 3781,7502 4081,7502 4081,7620 4381,7620 "/>
  </g>
  <g id="g8740">
   <polygon id="polygon8742" class="fil2 str0" points="5910,3058 6210,3058 6210,2940 6635,2940 6635,3058 6942,3058 6942,3300 7060,3300 7060,3660 6942,3660 6942,4020 7060,4020 7060,4380 6942,4380 6942,4622 6635,4622 6635,4740 6210,4740 6210,4622 5910,4622 5910,4740 5610,4740 5610,4622 5310,4622 5310,4740 5010,4740 5010,4622 4710,4622 4710,4740 4410,4740 4410,4622 4110,4622 4110,4740 3810,4740 3810,4622 3510,4622 3510,4740 3210,4740 3210,4622 2910,4622 2910,4740 2485,4740 2485,4622 2178,4622 2178,4380 2060,4380 2060,4020 2178,4020 2178,3660 2060,3660 2060,3300 2178,3300 2178,3058 2485,3058 2485,2940 2910,2940 2910,3058 3210,3058 3210,2940 3510,2940 3510,3058 3810,3058 3810,2940 4110,2940 4110,3058 4410,3058 4410,2940 4710,2940 4710,3058 5010,3058 5010,2940 5310,2940 5310,3058 5610,3058 5610,2940 5910,2940 "/>
  </g>
  <rect id="rect8776" class="fil2 str0" x="7127" y="1026" width="577" height="998"/>
  <rect id="rect8778" class="fil2 str0" x="5304" y="2935" width="499" height="479"/>
  <rect id="rect8780" class="fil2 str0" x="5338" y="2507" width="499" height="255"/>
  <rect id="rect8782" class="fil2 str0" x="2983" y="3846" width="799" height="893"/>
  <rect id="rect8784" class="fil2 str0" x="2954" y="7504" width="799" height="891"/>
  <rect id="rect8786" class="fil2 str0" x="4493" y="5003" width="0.65748" height="2275.27"/>
  <rect id="rect8808" class="fil2 str0" x="2943" y="4882" width="805" height="122"/>
  <rect id="rect8810" class="fil2 str0" x="2943" y="7280" width="805" height="121"/>
  <rect id="rect4862" class="fil2 str0" x="6977" y="1004" width="114" height="998"/>
 </g>
</svg>
