<?xml version="1.0" encoding="UTF-8"?>
<!DOCTYPE svg PUBLIC "-//W3C//DTD SVG 1.1//EN" "http://www.w3.org/Graphics/SVG/1.1/DTD/svg11.dtd">
<!-- Creator: CorelDRAW X7 -->
<svg xmlns="http://www.w3.org/2000/svg" xml:space="preserve" width="24in" height="12in" version="1.1" style="shape-rendering:geometricPrecision; text-rendering:geometricPrecision; image-rendering:optimizeQuality; fill-rule:evenodd; clip-rule:evenodd"
viewBox="0 0 24000 12000"
 xmlns:xlink="http://www.w3.org/1999/xlink"
 xmlns:dc="http://purl.org/dc/elements/1.1/"
 xmlns:cc="http://creativecommons.org/ns#"
 xmlns:rdf="http://www.w3.org/1999/02/22-rdf-syntax-ns#"
 xmlns:svg="http://www.w3.org/2000/svg"
 xmlns:sodipodi="http://sodipodi.sourceforge.net/DTD/sodipodi-0.dtd"
 xmlns:inkscape="http://www.inkscape.org/namespaces/inkscape"
 inkscape:version="0.91 r13725"
 sodipodi:docname="CaseDesign.svg">
 <defs>
  <style type="text/css">
   <![CDATA[
    .str1 {stroke:#373435;stroke-width:6.94488}
    .str0 {stroke:black;stroke-width:3}
    .fil1 {fill:none}
    .fil0 {fill:none}
   ]]>
  </style>
 </defs>
 <g id="Layer_x0020_1">
  <metadata id="CorelCorpID_0Corel-Layer"/>
  <sodipodi:namedview id="base" pagecolor="#ffffff" bordercolor="#666666" borderopacity="1.0" inkscape:pageopacity="0.0" inkscape:pageshadow="2" inkscape:zoom="1.4142136" inkscape:cx="211.0634" inkscape:cy="126.78238" inkscape:document-units="px" inkscape:current-layer="layer1" showgrid="false" units="in" inkscape:window-width="1366" inkscape:window-height="693" inkscape:window-x="0" inkscape:window-y="1" inkscape:window-maximized="1"/>
  <path id="path5625" class="fil0 str0" d="M2005 11783c0,-21 -17,-39 -39,-39 -21,0 -39,18 -39,39 0,22 18,39 39,39 22,0 39,-17 39,-39z"/>
  <path id="path5627" class="fil0 str0" d="M1782 10147c0,-22 -17,-39 -39,-39 -21,0 -39,17 -39,39 0,21 18,39 39,39 22,0 39,-18 39,-39z"/>
  <path id="path5629" class="fil0 str0" d="M3223 10147c0,-22 -18,-39 -40,-39 -21,0 -39,17 -39,39 0,21 18,39 39,39 22,0 40,-18 40,-39z"/>
  <path id="path5631" class="fil0 str0" d="M3000 11783c0,-21 -18,-39 -40,-39 -21,0 -39,18 -39,39 0,22 18,39 39,39 22,0 40,-17 40,-39z"/>
  <rect id="rect5637" class="fil1 str0" x="1819" y="10029" width="1287" height="1681"/>
  <rect class="fil1 str1" x="1663" y="9880" width="1600" height="1980"/>
 </g>
</svg>
